<svg width="25" height="24" viewBox="0 0 25 24" fill="none" xmlns="http://www.w3.org/2000/svg">
<path d="M4.5 10.6541V18.3741C4.5 18.9441 4.5 19.2281 4.609 19.4451C4.705 19.6371 4.858 19.7921 5.046 19.8891C5.26 20.0001 5.54 20.0001 6.1 20.0001H10V16.5001C10 16.0351 10 15.8031 10.038 15.6101C10.1151 15.2219 10.3056 14.8654 10.5855 14.5855C10.8653 14.3057 11.2218 14.1152 11.61 14.0381C11.803 14.0001 12.035 14.0001 12.5 14.0001C12.965 14.0001 13.197 14.0001 13.39 14.0381C13.7782 14.1152 14.1347 14.3057 14.4145 14.5855C14.6944 14.8654 14.8849 15.2219 14.962 15.6101C15 15.8031 15 16.0351 15 16.5001V20.0001H18.9C19.46 20.0001 19.74 20.0001 19.954 19.8901C20.143 19.7916 20.2959 19.6358 20.391 19.4451C20.5 19.2281 20.5 18.9431 20.5 18.3751V10.6541C20.5 10.3561 20.5 10.2071 20.462 10.0701C20.428 9.94924 20.3721 9.83568 20.297 9.73509C20.212 9.62209 20.095 9.53209 19.86 9.35409L13.46 4.47709C13.116 4.21509 12.944 4.08409 12.755 4.03309C12.5879 3.98832 12.4121 3.98832 12.245 4.03309C12.056 4.08409 11.885 4.21509 11.54 4.47709L5.14 9.35409C4.905 9.53209 4.788 9.62209 4.703 9.73509C4.628 9.83509 4.573 9.94909 4.538 10.0701C4.5 10.2071 4.5 10.3561 4.5 10.6541Z" fill="#A621FF" stroke="#A621FF" stroke-width="1.5" stroke-linecap="round" stroke-linejoin="round"/>
</svg>
